<?xml version="1.0" encoding="UTF-8"?>
<!DOCTYPE svg PUBLIC "-//W3C//DTD SVG 1.1//EN" "http://www.w3.org/Graphics/SVG/1.1/DTD/svg11.dtd">
<!-- Creator: CorelDRAW X8 -->
<svg xmlns="http://www.w3.org/2000/svg" xml:space="preserve" width="1080px" height="1920px" version="1.1" style="shape-rendering:geometricPrecision; text-rendering:geometricPrecision; image-rendering:optimizeQuality; fill-rule:evenodd; clip-rule:evenodd"
viewBox="0 0 1080 1920"
 xmlns:xlink="http://www.w3.org/1999/xlink">
 <defs>
  <style type="text/css">
   <![CDATA[
    .str3 {stroke:#FEFEFE;stroke-width:0.999213;stroke-opacity:0.501961}
    .str2 {stroke:#F4F5F6;stroke-width:2.3622;stroke-opacity:0.501961}
    .str0 {stroke:#EAE6E7;stroke-width:2.3622;stroke-opacity:0.501961}
    .str1 {stroke:#E9E9E9;stroke-width:2.3622;stroke-opacity:0.501961}
    .fil0 {fill:black;fill-opacity:0.501961}
   ]]>
  </style>
 </defs>
 <g id="Capa_x0020_1">
  <metadata id="CorelCorpID_0Corel-Layer"/>
  <path class="fil0 str0" d="M396 1037l396 0c14,0 25,11 25,25l0 30c0,14 -11,25 -25,25l-396 0c-14,0 -25,-11 -25,-25l0 -30c0,-14 11,-25 25,-25z"/>
  <path class="fil0 str1" d="M239 974l0 -180c0,-22 18,-40 40,-40l0 0c22,0 40,18 40,40l0 180c0,22 -18,40 -40,40l0 0c-22,0 -40,-18 -40,-40z"/>
  <path class="fil0 str2" d="M869 974l0 -180c0,-22 18,-40 40,-40l0 0c22,0 40,18 40,40l0 180c0,22 -18,40 -40,40l0 0c-22,0 -40,-18 -40,-40z"/>
  <path class="fil0 str3" d="M487 414l220 0c60,0 104,45 109,100l43 502 -530 0 48 -502c6,-55 50,-100 110,-100z"/>
 </g>
</svg>
