<?xml version="1.0" encoding="utf-8"?>
<!-- Svg Vector Icons : http://www.onlinewebfonts.com/icon -->
<!DOCTYPE svg PUBLIC "-//W3C//DTD SVG 1.1//EN" "http://www.w3.org/Graphics/SVG/1.1/DTD/svg11.dtd">
<svg version="1.1" xmlns="http://www.w3.org/2000/svg" xmlns:xlink="http://www.w3.org/1999/xlink" x="0px" y="0px" viewBox="0 0 1000 1000" enable-background="new 0 0 1000 1000" xml:space="preserve">
<metadata> Svg Vector Icons : http://www.onlinewebfonts.com/icon </metadata>
<g><path d="M250.1,569.5c-11-5.6-41.5-6.2-51.9-0.9c-10.4,5.3-26.4,21.1-31.4,30.5c-5.3,10.4-5.3,41.2,0,53.7c5.9,13.6,22.8,28.5,37.7,33.2l0,0c17.2,5.3,20.5,5.3,37.4-0.3c16.3-5.3,32.3-19.3,38.3-32.9c4.7-11.3,5.3-38.6,0.9-50.4C277.1,592,262,575.7,250.1,569.5z"/><path d="M971,401.3c-10.7-38-21.1-72.4-23.1-76.5c-2.4-4.4-7.4-9.5-11.6-11.3c-5.9-2.7-113-3.6-447.8-3.6H47v13.3c0,10.1,2.1,14.2,6.5,16.9c3.6,2.1,6.2,6.8,6.2,11.6c0,4.4-11,38.3-24.3,75.6l-24.3,67.9l-0.9,58.4c-0.6,38.6,0.3,60.5,2.4,64.6l0,0c3.3,5.9,5.3,6.2,63.2,5.3l59.9-0.9l2.1-13c4.4-26.7,31.1-56.6,57.8-66.1c16.9-5.9,47.4-4.7,63.5,2.4c27.6,12.2,48,37.4,52.5,64.1l2.1,12.5l172.3,0.9l172.6,0.6l2.1-11.3c4.7-27,29.1-57.2,54.9-68.5c14.5-6.2,51.6-5.9,66.4,0.3c20.5,8.9,37.4,25.2,46.3,44.8c4.4,9.8,8.6,21.4,9.2,25.5l1.2,7.4l63.8,0.9c43.3,0.6,65.8-0.3,71.5-2.7c15.4-6.5,16.3-13.6,16.3-85.4v-65.2L971,401.3z M181.9,473.7c-3.6,4.2-12.2,5-70,5c-60.2,0-66.4-0.6-70.9-5.3c-2.7-3-5-8-5-11.3c0-8.6,38.3-111.5,43.6-117.4c4.2-4.4,10.4-5.3,49.8-5.3c34.1,0,46.3,0.9,50.7,4.2c5.3,3.9,5.6,8.3,5.6,64.6C186,455.3,185.1,469.8,181.9,473.7z M333.4,473.7c-8,7.1-116.3,7.4-123.4,0.3c-7.1-7.1-8.3-19.6-7.1-73c1.2-64.9-1.8-61.7,54-61.7c23.1,0,43.6,1.2,45.7,2.7c4.7,3,35.9,104.7,35.9,117.7C338.8,464.8,336.4,471,333.4,473.7z M484.7,473.7L484.7,473.7c-4.7,4.2-13.6,5-60.5,5c-48.6,0-55.5-0.6-59.3-5.3c-4.7-5.6-11.3-24.3-25.8-75.3c-17.2-59-17.2-58.7,56.6-58.7c48.6,0,55.5,0.6,59.6,5.3c4.7,5.3,35,107.9,35,118.6C490,466.3,487.6,471,484.7,473.7z M637.1,471.3L637.1,471.3l-5,7.4h-57.5c-56.6,0-57.8-0.3-62-6.8c-5.6-8.9-31.4-102.3-31.4-114.2c0-17.5,3.6-18.7,63.5-18.7c38.6,0,55.5,1.2,59,3.6c3,2.4,11.3,26.4,21.6,62.3C641,461.2,641.5,464.5,637.1,471.3z M786,475.2c-2.7,2.4-20.2,3.6-60.8,3.6c-56,0-57.2,0-61.4-6.8c-3.9-5.9-34.4-110.9-34.4-118c0-1.5,2.7-5.6,5.9-8.9c5.6-5.6,9.8-5.9,60.2-5.9c38.8,0,55.8,1.2,59.3,3.9c5.6,4.2,34.7,103.5,34.7,118.6C789.5,467.2,788,473.1,786,475.2z M935.4,473.7c-4.7,4.2-13.6,5-60.8,5c-54,0-55.5,0-59.6-6.8c-5-8-34.4-107.4-34.4-116.5c0-3.6,2.4-8.6,5.3-11.3c4.7-4.2,13.3-5,60.2-4.7c30,0,56,0.9,57.8,2.4c5.9,3.9,9.2,13.3,23.1,62.3C942.3,457.1,943.4,466.6,935.4,473.7z"/><path d="M783.3,576c-23.4-18.1-57.2-15.4-79.5,5.9c-33.8,32.6-21.9,87.5,22.2,102.9c32,11,62.9-1.8,78.6-32.6c3.9-7.4,4.7-15.4,3.9-30.2C807.3,599.1,802.9,590.8,783.3,576z"/></g>
</svg>