<?xml version="1.0" encoding="utf-8"?>
<!-- Svg Vector Icons : http://www.onlinewebfonts.com/icon -->
<!DOCTYPE svg PUBLIC "-//W3C//DTD SVG 1.1//EN" "http://www.w3.org/Graphics/SVG/1.1/DTD/svg11.dtd">
<svg version="1.1" xmlns="http://www.w3.org/2000/svg" xmlns:xlink="http://www.w3.org/1999/xlink" x="0px" y="0px" viewBox="0 0 1000 1000" enable-background="new 0 0 1000 1000" xml:space="preserve">
<metadata> Svg Vector Icons : http://www.onlinewebfonts.com/icon </metadata>
<g><g><g><path d="M563.7,321.8c-6.5-3.7-12.7-4.2-18.8-1.5c-9.4,4.3-18.7,14.5-28,30.5c-9.3,16.1-13.4,29.2-12.5,39.5c0.6,6.7,4.2,12,10.6,15.7c6.5,3.8,12.7,4.2,18.7,1.2c9.4-4.3,18.7-14.4,28-30.5c9.2-15.9,13.4-29.1,12.4-39.5C573.7,330.7,570.2,325.6,563.7,321.8z"/><path d="M680.1,594.2c-6.5-3.8-12.7-4.1-18.7-1.2c-9.4,4.3-18.6,14.4-28,30.5c-9.3,16-13.4,29.2-12.4,39.4c0.5,6.6,4.1,11.7,10.5,15.4c6.5,3.8,12.7,4.3,18.8,1.5c9.4-4.3,18.7-14.4,28-30.5c9.3-16.1,13.4-29.3,12.5-39.6C690.1,603.1,686.6,598,680.1,594.2z"/><path d="M492.5,107.7L183.1,260.6l3.5,54.1c-13.7,2.2-28,5.2-42.6,9.1c-63.1,16.9-113.7,44.9-129,71.3c-4.8,8.3-6.2,16.3-4.2,23.8c2.1,7.6,7.2,13.8,15.5,18.6c26.4,15.3,84.3,14.2,147.3-2.8c7-1.8,13.7-3.9,20.3-6l11.3,176.3l497.5,287.2L990,394.9L492.5,107.7z M168.8,416.3C88.9,437.7,33.3,428.4,29.4,414c-0.6-2.5,0.1-5.6,2.2-9.3C41.8,387,82.9,360,149,342.3c13.8-3.7,26.7-6.3,38.9-8.4l4.9,75.2C185.2,411.7,177.1,414.1,168.8,416.3z M276.9,364.7c-6.5-9.3-9.5-20.5-8.5-31.8c5.4,1.3,10.1,2.9,13.4,4.7c3.7,2.1,5.9,4.5,6.6,7c0.7,2.5-0.1,5.6-2.2,9.3C284.2,357.1,280.8,360.9,276.9,364.7z M291.8,378.7c-0.4-0.2-0.6-0.6-1-0.9c4.9-4.8,9.1-9.5,11.9-14.3c4.8-8.3,6.2-16.2,4.1-23.8c-2-7.6-7.3-13.8-15.5-18.5c-4.7-2.8-10.8-4.8-17.4-6.5c0.2-0.4,0.2-0.8,0.5-1.3c13.2-22.9,42.5-30.7,65.4-17.5c22.9,13.3,30.7,42.5,17.5,65.4C344.1,384.1,314.8,392,291.8,378.7z M459.9,404.5c-8.1-13.2-11.6-27.5-10.5-42.7c1.1-15.3,5.5-29.5,13.2-42.9c7.6-13.2,17.8-24.1,30.4-32.7c12.6-8.6,26.7-12.7,42.3-12.2c15.6,0.4,31.4,5.3,47.7,14.6c23.8,13.8,38.7,31.4,44.6,53c5.8,21.5,2.2,43.6-10.8,66.3c-13.2,22.8-30.6,37.1-52.1,42.7c-21.6,5.7-44.3,1.7-68.1-12.1C480.2,429.1,468.1,417.8,459.9,404.5z M407.8,593.3l339.8-209.5l41.1,23.7L448.5,616.7L407.8,593.3z M681.1,723.1c-21.6,5.7-44.4,1.7-68.4-12.1c-16-9.3-28.2-20.6-36.3-34c-8.2-13.3-11.7-27.6-10.6-42.7c1.1-15.1,5.6-29.4,13.3-42.7c7.7-13.3,17.8-24.3,30.4-32.8c12.6-8.5,26.6-12.6,42.3-12.2c15.7,0.5,31.5,5.3,47.6,14.5c23.9,13.9,38.8,31.6,44.7,53.2c5.8,21.6,2.2,43.7-10.8,66.4C720,703.2,702.7,717.4,681.1,723.1z"/></g></g><g></g><g></g><g></g><g></g><g></g><g></g><g></g><g></g><g></g><g></g><g></g><g></g><g></g><g></g><g></g></g>
</svg>