<?xml version="1.0" encoding="utf-8"?>
<!-- Svg Vector Icons : http://www.onlinewebfonts.com/icon -->
<!DOCTYPE svg PUBLIC "-//W3C//DTD SVG 1.1//EN" "http://www.w3.org/Graphics/SVG/1.1/DTD/svg11.dtd">
<svg version="1.1" xmlns="http://www.w3.org/2000/svg" xmlns:xlink="http://www.w3.org/1999/xlink" x="0px" y="0px" viewBox="0 0 1000 1000" enable-background="new 0 0 1000 1000" xml:space="preserve">
<metadata> Svg Vector Icons : http://www.onlinewebfonts.com/icon </metadata>
<g><g transform="translate(0.000000,511.000000) scale(0.100000,-0.100000)"><path d="M6581.6,4976.1c-420.2-65.5-901.4-205.6-1348.7-395.3l-257.5-108.4l-103.9,74.5c-207.8,153.6-463.1,214.6-702.6,171.7c-282.4-52-352.4-103.9-1113.7-842.6c-1213.1-1174.7-1308-1271.8-1389.3-1443.5c-144.6-298.2-140.1-162.6-140.1-3445c0-2125.8,6.8-3020.3,24.9-3106.2c56.5-264.3,223.6-478.9,467.6-598.6l128.8-63.3l2121.2-6.8c2347.1-6.8,2250-11.3,2466.9,137.8c149.1,101.7,271.1,268.8,325.3,442.8c45.2,140,45.2,214.6,45.2,3180.7c0,2794.4-2.2,3049.7-38.4,3198.8c-22.6,90.4-40.7,169.4-40.7,178.5c0,6.8,140.1,106.2,311.7,219.1c628,417.9,1023.3,885.5,1116,1321.5c108.4,524.1-235,960.1-856.2,1084.3C7383.5,5021.3,6859.4,5021.3,6581.6,4976.1z M7408.4,4289.4c74.6-11.3,180.7-45.2,237.2-72.3c85.8-42.9,106.2-63.2,110.7-124.2c4.5-42.9-15.8-115.2-47.4-180.7C7435.5,3376.7,6428,2751,5418.2,2491.2c-164.9-42.9-327.6-76.8-356.9-76.8c-49.7,0-56.5-9-56.5-90.4c0-131-79.1-318.5-183-436c-262.1-298.2-741-309.5-1025.6-27.1c-291.4,293.7-264.3,795.2,58.7,1050.4c275.6,216.9,664.2,205.6,919.4-29.4l99.4-92.6l192,38.4c239.4,49.7,652.8,185.2,928.4,305c117.5,49.7,216.9,94.9,221.4,101.7c4.5,4.5-149.1,164.9-343.4,356.9l-350.1,350.2l232.7,85.8c277.9,103.9,761.3,228.2,991.7,257.5C6976.9,4314.2,7250.3,4316.5,7408.4,4289.4z M3554.5-14.1c232.7-70,427-280.1,492.5-530.9c85.8-338.9-92.6-698-422.4-844.9c-122-56.5-160.4-63.3-320.8-54.2c-300.5,11.3-519.6,158.1-646.1,424.7c-85.8,183-83.6,433.7,4.5,614.5C2824.8-72.8,3199.8,89.8,3554.5-14.1z M5409.1-61.5c52-67.8,58.8-124.2,22.6-192c-31.6-58.7-1904.4-2320-1978.9-2385.5c-72.3-70-173.9-67.8-244,4.5c-119.7,117.5-135.5,94.9,894.6,1337.4C4627.5-667,5086.1-115.7,5124.5-75.1C5217.1,19.8,5339.1,26.6,5409.1-61.5z M5601.2-1299.5c361.4-176.2,515.1-616.7,338.8-978.2c-74.5-153.6-268.8-329.8-417.9-379.5c-372.7-124.2-765.8,49.7-928.5,411.2c-67.8,149.1-67.8,424.7,0,576.1c85.8,192,262.1,350.1,463.1,415.7C5205.8-1204.6,5449.8-1224.9,5601.2-1299.5z"/><path d="M3206.6-441.1c-273.3-122-210.1-537.6,88.1-571.5c241.7-27.1,411.1,225.9,300.5,442.8C3527.4-443.3,3339.9-380.1,3206.6-441.1z"/><path d="M5142.6-1690.3c-216.9-106.2-216.9-427-2.2-537.6c196.5-101.7,429.2,38.4,429.2,257.5c0,131-58.8,230.4-164.9,280.1C5305.2-1642.9,5239.7-1642.9,5142.6-1690.3z"/></g></g>
</svg>