<?xml version="1.0" encoding="utf-8"?>
<!-- Svg Vector Icons : http://www.onlinewebfonts.com/icon -->
<!DOCTYPE svg PUBLIC "-//W3C//DTD SVG 1.1//EN" "http://www.w3.org/Graphics/SVG/1.1/DTD/svg11.dtd">
<svg version="1.1" xmlns="http://www.w3.org/2000/svg" xmlns:xlink="http://www.w3.org/1999/xlink" x="0px" y="0px" viewBox="0 0 1000 1000" enable-background="new 0 0 1000 1000" xml:space="preserve">
<metadata> Svg Vector Icons : http://www.onlinewebfonts.com/icon </metadata>
<g><g transform="translate(0.000000,512.000000) scale(0.100000,-0.100000)"><path d="M4621,5016.4c-1005.8-103.5-1825.8-415.7-2590.3-986.7c-241.4-180.1-762.5-701.2-942.6-942.6C568.9,2389.8,250.9,1613.8,124.4,726.8c-32.6-226.1-32.6-980.9,0-1207c126.5-889,446.4-1672.6,965.6-2360.4c180.1-239.5,546-618.8,795.1-823.8c986.7-812.3,2285.6-1214.7,3540.5-1097.8C6563.7-4655,7581-4187.5,8403-3392.4c852.6,827.7,1366,1896.7,1477.1,3084.6C9997,947.1,9594.6,2246.1,8782.3,3232.8c-779.8,946.5-1862.2,1557.6-3098,1747.3C5490.8,5008.8,4789.6,5033.7,4621,5016.4z M3921.7,2673.3c356.4-111.1,657.1-415.8,772.1-777.9c55.6-178.2,59.4-521.1,5.8-680.1c-134.1-396.6-400.4-662.9-797-797c-160.9-53.6-519.2-51.7-703.1,7.7c-168.6,51.7-394.7,201.2-513.5,335.3c-197.3,224.2-310.4,557.5-291.2,854.5c21.1,310.4,128.4,542.2,356.4,768.3c162.8,162.9,354.4,270.1,561.3,316.1C3473.4,2738.5,3758.9,2725,3921.7,2673.3z M7107.8,2414.7c82.4-34.5,182-149.4,195.4-228c30.6-162.9,124.5-61.3-2092.1-2278c-1438.8-1436.9-2082.5-2067.2-2119-2076.8c-84.3-19.2-214.6,1.9-277.8,46c-107.3,78.6-153.3,266.3-92,383.2c15.3,28.7,950.3,971.3,2074.9,2097.9c1394.8,1394.8,2065.3,2050,2103.6,2061.5C6985.2,2445.3,7038.9,2445.3,7107.8,2414.7z M6778.3-175.6c528.8-164.8,877.5-716.6,800.8-1266.4c-122.6-877.5-1095.9-1316.2-1829.7-825.7c-245.2,162.9-411.9,404.2-488.5,701.2c-118.8,463.7,80.5,973.3,488.5,1245.3C6059.8-114.3,6416.2-62.6,6778.3-175.6z"/><path d="M3461.9,2098.6c-183.9-42.2-318-145.6-396.6-304.6c-44.1-90-53.6-134.1-53.6-254.8c0-187.8,69-335.3,208.8-440.7c295-222.2,682-132.2,858.3,199.3c36.4,65.1,44.1,111.1,44.1,243.3c0,178.2-30.6,260.6-145.6,390.8C3868.1,2058.3,3628.6,2135,3461.9,2098.6z"/><path d="M6291.7-738.9c-436.8-109.2-592-643.7-275.9-954.1c224.2-220.3,578.6-218.4,795.1,1.9c335.3,341,126.5,910-350.6,959.9C6408.5-725.5,6331.9-729.3,6291.7-738.9z"/></g></g>
</svg>